<?xml version="1.0" encoding="iso-8859-1"?>

<!DOCTYPE svg PUBLIC "-//W3C//DTD SVG 1.1//EN" "http://www.w3.org/Graphics/SVG/1.1/DTD/svg11.dtd">
<!-- Uploaded to: SVG Repo, www.svgrepo.com, Generator: SVG Repo Mixer Tools -->
<svg height="800px" width="800px" version="1.1" id="_x36_" xmlns="http://www.w3.org/2000/svg" xmlns:xlink="http://www.w3.org/1999/xlink" 
	 viewBox="0 0 512 512"  xml:space="preserve">
<g>
	<path style="fill:#EAE9E9;" d="M472.262,476.407h-47.446c-10.389,0-19.273-7.41-19.273-18.533v-42.259
		c0-6.964-5.655-12.615-12.611-12.615h-10.374c-6.965,0-12.612,5.651-12.612,12.615v48.183c0,6.961-5.64,12.608-12.611,12.608
		H210.521c-6.957,0-12.604-5.647-12.604-12.608v-48.183c0-6.964-5.647-12.615-12.605-12.615h-10.381
		c-6.964,0-12.605,5.651-12.605,12.615v48.183c0,6.961-5.647,12.608-12.611,12.608H77.118c-4.389,0-8.475-2.284-10.762-6.033
		c-2.288-3.745-2.468-8.414-0.468-12.323l18.295-35.713c3.18-6.201,0.726-13.798-5.475-16.971l-9.23-4.73
		c-6.201-3.177-13.798-0.723-16.978,5.475l-32.54,65.291C9.392,490.313,21.255,512,44.981,512h427.281V476.407z"/>
	<g>
		<g>
			<path style="fill:#EAE9E9;" d="M210.521,476.407c-6.957,0-12.604-5.647-12.604-12.608v-48.183
				c0-6.964-5.647-12.615-12.605-12.615h-10.381c-6.964,0-12.605,5.651-12.605,12.615v48.183c0,6.961-5.647,12.608-12.611,12.608
				H77.118c-4.389,0-8.475-2.284-10.762-6.033c-2.288-3.745-2.468-8.414-0.468-12.323l18.295-35.713
				c3.18-6.201,0.726-13.798-5.475-16.971l-9.23-4.73c-6.201-3.177-13.798-0.723-16.978,5.475l-32.54,65.291
				C9.392,490.313,21.255,512,44.981,512h195.683v-35.593H210.521z"/>
			<path style="fill:#DFD7D5;" d="M472.262,476.407h-47.446c-10.389,0-19.273-7.41-19.273-18.533v-42.259
				c0-6.964-5.655-12.615-12.611-12.615h-10.374c-6.965,0-12.612,5.651-12.612,12.615v48.183c0,6.961-5.64,12.608-12.611,12.608
				H240.665V512h231.597V476.407z"/>
		</g>
		<g>
			<path style="fill:#EF976B;" d="M476.629,80.816v262.482c0,41.77-9.424,75.658-64.676,75.658H104.381
				c-38.676,0-68.072-14.367-81.331-35.878c-7.22-11.493-11.346-25.123-11.346-39.78v-7.662c0-3.907,0.295-7.737,0.885-11.493
				c4.936-32.49,30.72-58.641,64.238-63.428l56.212-7.885c13.777-1.913,38.971-7.144,57.763-22.543
				c15.309-12.521,24.518-25.928,29.827-39.043c5.382-13.112,6.849-25.932,6.849-37.277V83.025c0-41.77,18.273-58.935,60.043-58.935
				h128.115C456.514,24.385,476.629,39.486,476.629,80.816z"/>
			<g>
				<path style="fill:#83736E;" d="M184.068,269.532c47.468,0,82.677-29.288,82.677-82.676c0-35.525,0-138.939,0-186.856
					c-29.641,0-39.295,8.899-39.295,48.241v105.723c0,22.695-5.928,51.22-36.647,76.357c-18.763,15.349-44.014,20.582-57.737,22.51
					l-44.27,6.227l0,0C88.795,259.057,136.615,269.532,184.068,269.532z"/>
			</g>
			<path style="fill:#FFFFFF;" d="M297.852,99.996c0,6.752-5.468,12.23-12.23,12.23H227.78c-6.763,0-12.231-5.479-12.231-12.23l0,0
				c0-6.756,5.468-12.237,12.231-12.237h57.842C292.384,87.759,297.852,93.241,297.852,99.996L297.852,99.996z"/>
			<path style="fill:#FFFFFF;" d="M297.162,153.072c0,6.755-5.482,12.234-12.245,12.234h-57.828c-6.762,0-12.23-5.479-12.23-12.234
				l0,0c0-6.759,5.468-12.237,12.23-12.237h57.828C291.679,140.835,297.162,146.313,297.162,153.072L297.162,153.072z"/>
			<path style="fill:#FFFFFF;" d="M133.654,308.09c-6.758,0-12.23-5.471-12.23-12.233v-43.378c0-6.759,5.471-12.234,12.23-12.234
				l0,0c6.767,0,12.242,5.475,12.242,12.234v43.378C145.895,302.618,140.421,308.09,133.654,308.09L133.654,308.09z"/>
			<path style="fill:#FFFFFF;" d="M278.5,235.464c-3.281,5.907-10.734,8.036-16.634,4.755l-50.575-28.079
				c-5.913-3.284-8.043-10.731-4.763-16.637l0,0c3.281-5.907,10.734-8.036,16.633-4.755l50.576,28.075
				C279.637,222.108,281.78,229.557,278.5,235.464L278.5,235.464z"/>
			<path style="fill:#FFFFFF;" d="M214.154,295.856c-5.957,3.187-13.353,0.96-16.562-4.993l-27.338-50.971
				c-3.208-5.957-0.964-13.367,4.993-16.568l0,0c5.943-3.188,13.367-0.957,16.562,4.996l27.338,50.964
				C222.356,285.248,220.125,292.659,214.154,295.856L214.154,295.856z"/>
		</g>
		<path style="fill:#7898A0;" d="M414.809,24.09h-7.691l0.324,5.378c0,0,0,237.583,0,270.734c0,33.151-4.374,58.032-55.597,58.032
			c-51.223,0-255.654,0-255.654,0H12.528c1.799,8.961,5.011,17.385,9.698,24.846c12.209,19.81,38.209,33.41,72.436,35.461h326.5
			c46.374-3.957,54.648-36.144,54.648-75.241V80.816C475.809,39.486,455.694,24.385,414.809,24.09z"/>
		<path style="fill:#FFFFFF;" d="M476.226,50.025c0,9.824-1.122,17.792-9.878,17.792h-191.59c-8.755,0-15.856-7.968-15.856-17.792
			V23.331c0-9.831,7.101-17.798,15.856-17.798h185.605c8.755,0,15.863,7.967,15.863,17.798V50.025z"/>
		<g>
			<path style="fill:#FFFFFF;" d="M0.924,323.741C0.309,327.669,0,331.68,0,335.77v8.018c0,15.345,4.32,29.611,11.874,41.64
				c13.878,22.515,44.647,37.554,85.129,37.554h50.59L65.061,257.921C31.514,264.068,5.938,290.748,0.924,323.741z"/>
		</g>
	</g>
</g>
</svg>